# xmcd
#
# Track frame offsets: 
#        150
#        10225
#        20920
#        32221
#        42485
#        58111
#        77441
#        86139
#        95704
#        111757
#        128807
#        139755
#        151268
#        163828
#        176737
#        190427
#        202007
#
# Disc length: 2869 seconds
#
# Revision: 5
# Processed by: cddbd v1.5.2PL0 Copyright (c) Steve Scherf et al.
# Submitted via: ExactAudioCopyFreeDBPlugin 1.0
#
DISCID=f20b3311
DTITLE=Various Artist - The Verry Best Of Country Classics - CD3
DYEAR=0
DGENRE=Country
TTITLE0=Jim Reeves - He'll Have To Go
TTITLE1=Roger Miller - King Of The Road
TTITLE2=Don Gibson - A Legend Of My Time
TTITLE3=Loretta Lynn - You're Looking At Country
TTITLE4=Don Williams - Tears
TTITLE5=John Denver - Potter's Wheel
TTITLE6=Waylon Jennings - Love's Gonna Live Here
TTITLE7=Charley Pride - Kiss An Angel Good Morning
TTITLE8=Mac Wiseman - 18 Wheels Hummin' Home
TTITLE9=Lynn Anderson - Blue Bayou
TTITLE10=Hank Locklin - Send Me A Pillow, That You Dream On
TTITLE11=Johnny Cash - These Hands
TTITLE12=George Jones - Don' Be Angry
TTITLE13=Ferlin Husky - Behind Closed Doors
TTITLE14=Johnny Dollar - You Don't Have To Say You Love Me
TTITLE15=Johnny Hill - Big Wheels
TTITLE16=Faron Young - Swinging Doors
EXTD=
EXTT0=
EXTT1=
EXTT2=
EXTT3=
EXTT4=
EXTT5=
EXTT6=
EXTT7=
EXTT8=
EXTT9=
EXTT10=
EXTT11=
EXTT12=
EXTT13=
EXTT14=
EXTT15=
EXTT16=
PLAYORDER=
